<svg version="1.1" id="Layer_1" xmlns="http://www.w3.org/2000/svg" xmlns:xlink="http://www.w3.org/1999/xlink" x="0px" y="0px"
	 width="100%" viewBox="0 0 100 100" enable-background="new 0 0 100 100" xml:space="preserve">
<path fill="#2C2F2F" opacity="1.000000" stroke="none" 
	d="
M1.000000,65.000000 
	C1.000000,55.979103 1.000000,46.958210 1.331795,37.360809 
	C2.546712,35.080544 3.446153,33.385002 4.309944,31.671492 
	C7.061006,26.214174 9.140390,20.255945 15.344091,17.478846 
	C17.354284,18.268555 19.165201,18.822136 20.974157,19.528732 
	C20.972197,19.681747 20.994995,19.986956 20.892258,20.298508 
	C19.446098,22.302168 18.102673,23.994278 16.481098,25.885811 
	C8.363240,37.269260 5.677277,49.385963 9.617856,63.059006 
	C15.392202,86.802010 42.163383,100.095268 62.120434,93.872711 
	C63.166214,95.836281 64.103821,97.458405 64.999123,99.400368 
	C64.971214,100.146812 64.985603,100.573402 65.000000,101.000000 
	C55.979103,101.000000 46.958210,101.000000 37.360729,100.668159 
	C35.836704,99.716965 34.963970,98.901550 33.930573,98.507782 
	C19.335789,92.946404 9.227118,82.932060 3.595250,68.342651 
	C3.108726,67.082306 1.882580,66.107460 1.000000,65.000000 
z"/>
<path fill="#000000" opacity="1.000000" stroke="none" 
	d="
M65.000000,0.999999 
	C76.926605,1.000000 88.853210,1.000000 101.000000,1.000000 
	C101.000000,12.686641 101.000000,24.374662 100.649460,36.467369 
	C99.494705,35.295761 98.623367,33.749710 97.897301,32.138206 
	C93.542160,22.471869 87.796478,14.007041 77.834351,8.691821 
	C75.516380,7.211864 73.427773,5.985250 71.341965,4.753884 
	C69.226540,3.505029 67.113876,2.251486 65.000000,0.999999 
z"/>
<path fill="#000000" opacity="1.000000" stroke="none" 
	d="
M15.144814,17.242718 
	C9.140390,20.255945 7.061006,26.214174 4.309944,31.671492 
	C3.446153,33.385002 2.546712,35.080544 1.331795,36.892155 
	C1.000000,25.073397 1.000000,13.146794 1.000000,1.000000 
	C12.686640,1.000000 24.374662,1.000000 36.446976,1.342544 
	C33.617329,3.273216 30.090487,4.441415 27.263073,6.548259 
	C23.061087,9.679364 19.353809,13.474374 15.431633,17.064350 
	C15.427280,17.141874 15.144814,17.242718 15.144814,17.242718 
z"/>
<path fill="#000000" opacity="1.000000" stroke="none" 
	d="
M65.468658,101.000000 
	C64.985603,100.573402 64.971214,100.146812 65.375969,99.344643 
	C73.820747,97.195351 80.236900,92.638329 86.411484,86.996429 
	C90.521774,80.750496 94.346596,74.698044 98.223038,68.678833 
	C99.052620,67.390686 100.069435,66.223114 101.000000,65.000000 
	C101.000000,76.926605 101.000000,88.853210 101.000000,101.000000 
	C89.313362,101.000000 77.625336,101.000000 65.468658,101.000000 
z"/>
<path fill="#000000" opacity="1.000000" stroke="none" 
	d="
M1.000000,65.468658 
	C1.882580,66.107460 3.108726,67.082306 3.595250,68.342651 
	C9.227118,82.932060 19.335789,92.946404 33.930573,98.507782 
	C34.963970,98.901550 35.836704,99.716965 36.892075,100.668159 
	C25.073397,101.000000 13.146791,101.000000 1.000000,101.000000 
	C1.000000,89.313362 1.000000,77.625336 1.000000,65.468658 
z"/>
<path fill="#373939" opacity="1.000000" stroke="none" 
	d="
M78.064934,8.943078 
	C87.796478,14.007041 93.542160,22.471869 97.897301,32.138206 
	C98.623367,33.749710 99.494705,35.295761 100.649460,36.936028 
	C101.000000,42.022091 101.000000,47.044186 100.690628,52.398033 
	C98.152870,51.191990 95.924484,49.654186 93.546646,48.054985 
	C93.397194,47.993591 93.107727,47.850021 93.136963,47.429085 
	C92.790016,44.726028 92.532837,42.416626 92.016968,40.166531 
	C89.836952,30.657803 83.594383,23.788836 76.944344,16.770985 
	C77.324074,13.871585 77.694504,11.407331 78.064934,8.943078 
z"/>
<path fill="#343838" opacity="1.000000" stroke="none" 
	d="
M93.696098,48.116383 
	C95.924484,49.654186 98.152870,51.191990 100.690628,52.864899 
	C101.000000,56.692909 101.000000,60.385818 101.000000,64.539368 
	C100.069435,66.223114 99.052620,67.390686 98.223038,68.678833 
	C94.346596,74.698044 90.521774,80.750496 86.327805,86.890381 
	C85.977089,86.989685 85.811394,86.776291 85.797424,86.421997 
	C83.746094,85.421448 81.708740,84.775192 79.855789,83.827896 
	C87.164482,76.037552 92.635818,67.752365 93.040489,56.959667 
	C93.151161,54.007862 93.471809,51.063927 93.696098,48.116383 
z"/>
<path fill="#313534" opacity="1.000000" stroke="none" 
	d="
M15.435984,16.986824 
	C19.353809,13.474374 23.061087,9.679364 27.263073,6.548259 
	C30.090487,4.441415 33.617329,3.273216 36.915634,1.342544 
	C41.024544,1.000000 45.049088,1.000000 49.556419,1.414095 
	C50.362000,4.008410 50.684792,6.188631 50.602211,8.452875 
	C42.025654,8.937282 34.328518,10.815560 27.513828,15.798729 
	C27.406969,15.819257 27.284771,15.999337 26.890694,16.081537 
	C22.809740,16.438099 19.122862,16.712461 15.435984,16.986824 
z"/>
<path fill="#343838" opacity="1.000000" stroke="none" 
	d="
M51.007587,8.368851 
	C50.684792,6.188631 50.362000,4.008410 50.019604,1.414095 
	C54.689255,1.000000 59.378510,1.000000 64.533882,0.999999 
	C67.113876,2.251486 69.226540,3.505029 71.341965,4.753884 
	C73.427773,5.985250 75.516380,7.211864 77.834351,8.691821 
	C77.694504,11.407331 77.324074,13.871585 76.634247,16.617859 
	C70.966454,14.605647 65.618050,12.311413 59.955494,9.878155 
	C56.763420,9.282370 53.885502,8.825610 51.007587,8.368851 
z"/>
<path fill="#3AB3AF" opacity="1.000000" stroke="none" 
	d="
M62.012253,93.531265 
	C42.163383,100.095268 15.392202,86.802010 9.781055,62.716660 
	C10.260000,61.342804 10.615858,60.675690 11.125217,60.336964 
	C11.815246,62.408630 12.348604,64.152901 12.888790,65.895042 
	C18.514338,84.037971 43.979771,98.997810 62.362404,90.623863 
	C64.167038,90.404198 65.598557,90.172012 67.304581,90.231010 
	C65.723473,91.525208 63.867859,92.528236 62.012253,93.531265 
z"/>
<path fill="#313333" opacity="1.000000" stroke="none" 
	d="
M62.120434,93.872711 
	C63.867859,92.528236 65.723473,91.525208 67.291649,90.249527 
	C67.004219,89.976860 66.961189,89.988838 67.293610,90.317368 
	C68.093086,90.082069 68.560143,89.518257 69.010803,88.969940 
	C68.994423,88.985451 68.949989,88.993240 69.256233,89.350235 
	C70.044868,89.125664 70.527267,88.544098 71.004349,87.978973 
	C70.999031,87.995422 70.966461,87.983810 71.259956,88.313354 
	C72.024483,88.091263 72.495522,87.539619 72.969055,86.979195 
	C72.971558,86.970413 72.989563,86.967850 73.283569,87.267418 
	C74.373398,87.335098 75.169220,87.103218 76.414474,86.917114 
	C79.846397,86.900688 82.828896,86.838493 85.811394,86.776291 
	C85.811394,86.776291 85.977089,86.989685 86.060768,87.095734 
	C80.236900,92.638329 73.820747,97.195351 65.418266,99.024796 
	C64.103821,97.458405 63.166214,95.836281 62.120434,93.872711 
z"/>
<path fill="#38A5A1" opacity="1.000000" stroke="none" 
	d="
M10.971714,60.008579 
	C10.615858,60.675690 10.260000,61.342804 9.740944,62.352264 
	C5.677277,49.385963 8.363240,37.269260 16.716064,26.130245 
	C17.558115,26.485245 17.887049,26.795233 18.102304,27.442261 
	C11.292270,37.573711 9.197124,48.369888 10.971714,60.008579 
z"/>
<path fill="#3BB7B2" opacity="1.000000" stroke="none" 
	d="
M18.215981,27.105221 
	C17.887049,26.795233 17.558115,26.485245 16.994215,25.930824 
	C18.102673,23.994278 19.446098,22.302168 21.037441,20.253044 
	C21.285360,19.896030 21.358061,19.506254 21.358061,19.506254 
	C21.358061,19.506254 20.976118,19.375715 20.976118,19.375715 
	C19.165201,18.822136 17.354284,18.268555 15.344091,17.478846 
	C15.144814,17.242718 15.427280,17.141874 15.431632,17.064350 
	C19.122862,16.712461 22.809740,16.438099 27.182823,16.446144 
	C28.064466,16.970963 28.259901,17.213375 28.227247,17.697832 
	C26.249529,19.574854 24.499901,21.209829 22.467463,22.981518 
	C20.861763,24.447227 19.538872,25.776224 18.215981,27.105221 
z"/>
<path fill="#313534" opacity="1.000000" stroke="none" 
	d="
M20.974157,19.528732 
	C20.976118,19.375715 21.358061,19.506254 21.358061,19.506254 
	C21.358061,19.506254 21.285360,19.896030 21.140179,19.941494 
	C20.994995,19.986956 20.972197,19.681747 20.974157,19.528732 
z"/>
<path fill="#3BAEA9" opacity="1.000000" stroke="none" 
	d="
M60.269653,10.017178 
	C65.618050,12.311413 70.966454,14.605647 76.624947,17.053005 
	C83.594383,23.788836 89.836952,30.657803 92.016968,40.166531 
	C92.532837,42.416626 92.790016,44.726028 92.897949,47.585342 
	C92.129852,48.438210 91.630005,48.713882 91.027420,48.600693 
	C89.520798,43.304680 88.681702,38.142246 86.601822,33.540638 
	C81.402512,22.037457 71.543716,15.881942 60.063065,11.506353 
	C60.175625,10.678730 60.222637,10.347954 60.269653,10.017178 
z"/>
<path fill="#38A5A1" opacity="1.000000" stroke="none" 
	d="
M91.130157,48.989555 
	C91.630005,48.713882 92.129852,48.438210 92.868713,48.006279 
	C93.107727,47.850021 93.397194,47.993591 93.546646,48.054985 
	C93.471809,51.063927 93.151161,54.007862 93.040489,56.959667 
	C92.635818,67.752365 87.164482,76.037552 79.557449,83.941223 
	C78.036652,84.579941 76.998619,84.804314 75.979752,85.024826 
	C75.998932,85.020966 75.989090,85.050674 76.013184,84.817734 
	C76.690292,83.719093 77.343300,82.853394 78.196991,81.726814 
	C79.796822,79.736122 81.195976,78.006310 82.849403,76.068687 
	C89.209389,67.928375 91.350899,58.811768 91.130157,48.989555 
z"/>
<path fill="#399A96" opacity="1.000000" stroke="none" 
	d="
M75.960579,85.028687 
	C76.998619,84.804314 78.036652,84.579941 79.373032,84.242249 
	C81.708740,84.775192 83.746094,85.421448 85.797424,86.421997 
	C82.828896,86.838493 79.846397,86.900688 76.415802,86.609795 
	C75.965332,85.847366 75.962952,85.438026 75.960579,85.028687 
z"/>
<path fill="#38A5A1" opacity="1.000000" stroke="none" 
	d="
M59.955494,9.878154 
	C60.222637,10.347954 60.175625,10.678730 59.626137,11.499985 
	C57.088734,11.894408 55.053810,11.798354 52.573296,11.569010 
	C43.832355,10.908226 36.278046,13.391303 28.806099,16.886417 
	C28.261301,16.360619 27.940994,16.069410 27.620687,15.778202 
	C34.328518,10.815560 42.025654,8.937282 50.602211,8.452875 
	C53.885502,8.825610 56.763420,9.282370 59.955494,9.878154 
z"/>
<path fill="#3BB7B2" opacity="1.000000" stroke="none" 
	d="
M27.513828,15.798729 
	C27.940994,16.069410 28.261301,16.360619 28.684025,17.007465 
	C28.786440,17.363104 28.455336,17.455788 28.455336,17.455788 
	C28.259901,17.213375 28.064466,16.970963 27.576900,16.363943 
	C27.284771,15.999337 27.406969,15.819257 27.513828,15.798729 
z"/>
<path fill="#2D3030" opacity="1.000000" stroke="none" 
	d="
M18.102304,27.442261 
	C19.538872,25.776224 20.861763,24.447227 22.623777,23.296909 
	C23.777796,25.003574 24.492689,26.531559 25.365715,28.397528 
	C27.156454,27.012972 28.273691,26.149149 29.819183,24.954210 
	C31.840189,29.288488 33.696915,33.270451 35.332428,37.518185 
	C27.334871,44.963879 24.706785,54.271854 24.161175,64.715607 
	C24.461952,65.336105 24.704123,65.657402 24.981348,66.224411 
	C25.423220,66.839119 25.830036,67.208122 26.628042,67.649704 
	C34.678497,67.842293 42.337765,67.962296 50.063313,68.441673 
	C51.321510,71.294846 52.392673,73.855606 53.730808,76.268303 
	C56.406265,81.092224 59.227978,85.835045 61.989292,90.611351 
	C43.979771,98.997810 18.514338,84.037971 12.888790,65.895042 
	C12.348604,64.152901 11.815246,62.408630 11.125216,60.336964 
	C9.197124,48.369888 11.292270,37.573711 18.102304,27.442261 
z"/>
<path fill="#303232" opacity="1.000000" stroke="none" 
	d="
M62.362404,90.623863 
	C59.227978,85.835045 56.406265,81.092224 53.730808,76.268303 
	C52.392673,73.855606 51.321510,71.294846 50.527264,68.368546 
	C58.660244,67.734863 66.395554,67.533691 74.405823,67.286133 
	C74.856056,67.177780 75.031319,67.115799 75.454704,67.261703 
	C78.000259,70.405220 80.297691,73.340866 82.595123,76.276505 
	C81.195976,78.006310 79.796822,79.736122 77.897583,81.491592 
	C76.972237,79.468407 76.546989,77.419556 76.121735,75.370705 
	C75.433342,75.426765 74.744949,75.482826 74.056557,75.538887 
	C74.056557,78.698639 74.056557,81.858398 73.804031,85.217865 
	C73.364189,85.934334 73.176880,86.451096 72.989563,86.967850 
	C72.989563,86.967850 72.971558,86.970413 72.659859,86.791168 
	C71.887596,87.069221 71.427032,87.526520 70.966461,87.983810 
	C70.966461,87.983810 70.999031,87.995422 70.681587,87.855453 
	C69.892761,88.141396 69.421379,88.567322 68.949997,88.993240 
	C68.949989,88.993240 68.994423,88.985451 68.677902,88.862106 
	C67.894646,89.155449 67.427917,89.572144 66.961197,89.988846 
	C66.961189,89.988838 67.004219,89.976860 67.017151,89.958344 
	C65.598557,90.172012 64.167038,90.404198 62.362404,90.623863 
z"/>
<path fill="#3AB3AF" opacity="1.000000" stroke="none" 
	d="
M73.283569,87.267418 
	C73.176880,86.451096 73.364189,85.934334 74.125977,85.235947 
	C75.129997,85.053093 75.559547,85.051880 75.989090,85.050674 
	C75.989090,85.050674 75.998932,85.020966 75.979752,85.024826 
	C75.962952,85.438026 75.965332,85.847366 75.966377,86.564026 
	C75.169220,87.103218 74.373398,87.335098 73.283569,87.267418 
z"/>
<path fill="#3AB3AF" opacity="1.000000" stroke="none" 
	d="
M71.259956,88.313354 
	C71.427032,87.526520 71.887596,87.069221 72.657356,86.799950 
	C72.495522,87.539619 72.024483,88.091263 71.259956,88.313354 
z"/>
<path fill="#3AB3AF" opacity="1.000000" stroke="none" 
	d="
M69.256241,89.350243 
	C69.421379,88.567322 69.892761,88.141396 70.686905,87.839005 
	C70.527267,88.544098 70.044868,89.125664 69.256241,89.350243 
z"/>
<path fill="#3AB3AF" opacity="1.000000" stroke="none" 
	d="
M67.293617,90.317368 
	C67.427917,89.572144 67.894646,89.155449 68.694283,88.846596 
	C68.560143,89.518257 68.093086,90.082069 67.293617,90.317368 
z"/>
<path fill="#313333" opacity="1.000000" stroke="none" 
	d="
M35.553642,37.252415 
	C33.696915,33.270451 31.840189,29.288488 29.819183,24.954210 
	C28.273691,26.149149 27.156454,27.012972 25.365715,28.397528 
	C24.492689,26.531559 23.777796,25.003574 22.906586,23.160198 
	C24.499901,21.209829 26.249529,19.574854 28.227247,17.697832 
	C28.455336,17.455788 28.786440,17.363104 28.908516,17.242056 
	C36.278046,13.391303 43.832355,10.908226 52.629616,11.974347 
	C54.224495,16.284105 55.593102,20.004240 56.303883,23.846079 
	C56.710270,26.042610 56.045918,28.437243 55.758293,30.756805 
	C55.652927,30.770933 55.310158,30.537008 54.956131,30.340029 
	C52.064823,30.346909 49.527534,30.550766 46.627243,30.834805 
	C42.694038,33.027458 39.123837,35.139938 35.553642,37.252415 
z"/>
<path fill="#343737" opacity="1.000000" stroke="none" 
	d="
M55.863655,30.742680 
	C56.045918,28.437243 56.710270,26.042610 56.303883,23.846079 
	C55.593102,20.004240 54.224495,16.284105 53.075203,12.107637 
	C55.053810,11.798354 57.088734,11.894408 59.560593,11.996832 
	C71.543716,15.881942 81.402512,22.037457 86.601822,33.540638 
	C88.681702,38.142246 89.520798,43.304680 91.027420,48.600693 
	C91.350899,58.811768 89.209389,67.928375 82.849403,76.068687 
	C80.297691,73.340866 78.000259,70.405220 75.542007,66.945938 
	C75.931595,65.744919 76.482002,65.067528 77.103241,64.005966 
	C76.153526,60.141079 74.522697,56.711018 74.228745,53.169979 
	C73.402473,43.216457 67.919144,37.302883 58.621311,33.870079 
	C57.977783,33.851700 57.720413,33.889957 57.507172,33.929516 
	C57.551292,33.930813 57.630219,33.891258 57.377541,33.622021 
	C56.704464,32.482750 56.284061,31.612715 55.863655,30.742680 
z"/>
<path fill="#399A96" opacity="1.000000" stroke="none" 
	d="
M76.013184,84.817734 
	C75.559547,85.051880 75.129997,85.053093 74.378510,85.036224 
	C74.056557,81.858398 74.056557,78.698639 74.056557,75.538887 
	C74.744949,75.482826 75.433342,75.426765 76.121735,75.370705 
	C76.546989,77.419556 76.972237,79.468407 77.696899,81.752480 
	C77.343300,82.853394 76.690292,83.719093 76.013184,84.817734 
z"/>
<path fill="#3AB3AF" opacity="1.000000" stroke="none" 
	d="
M55.758293,30.756805 
	C56.284061,31.612715 56.704464,32.482750 57.171188,34.328449 
	C56.833103,35.608513 56.448696,35.912914 55.651386,35.903423 
	C53.269917,31.170641 49.869133,33.585026 46.764832,33.433022 
	C46.764832,41.007397 46.764832,48.163651 46.764832,55.573051 
	C49.439194,55.727901 51.718552,55.859882 54.122620,56.247353 
	C54.499359,57.012527 54.751389,57.522221 54.541607,58.120125 
	C46.592518,58.237011 39.098045,58.473900 31.620691,58.215469 
	C27.207617,58.062943 25.421009,59.679062 25.537014,64.102585 
	C24.740025,64.276596 24.421295,64.346497 24.102566,64.416405 
	C24.706785,54.271854 27.334871,44.963879 35.332424,37.518185 
	C39.123837,35.139938 42.694038,33.027458 47.048737,30.878799 
	C50.325542,30.740749 52.817848,30.638878 55.310158,30.537006 
	C55.310158,30.537008 55.652927,30.770933 55.758293,30.756805 
M39.221203,55.812412 
	C40.749039,55.189262 43.555683,54.648602 43.602043,53.929890 
	C43.967110,48.270370 43.804714,42.576828 43.804714,36.665588 
	C34.338078,39.234535 28.353031,47.447899 29.507715,55.815277 
	C32.384014,55.815277 35.344845,55.815277 39.221203,55.812412 
z"/>
<path fill="#3BB7B2" opacity="1.000000" stroke="none" 
	d="
M24.161175,64.715607 
	C24.421295,64.346497 24.740025,64.276596 25.829815,64.334549 
	C28.692324,64.783310 30.782391,65.370964 32.875446,65.381821 
	C46.468853,65.452332 60.062916,65.397423 73.774536,65.870995 
	C73.971825,66.683113 74.051338,67.007812 74.130859,67.332512 
	C66.395554,67.533691 58.660244,67.734863 50.460983,68.009171 
	C42.337765,67.962296 34.678497,67.842293 26.423201,67.375137 
	C25.533545,66.678223 25.239920,66.328468 24.946295,65.978706 
	C24.704123,65.657402 24.461952,65.336105 24.161175,64.715607 
z"/>
<path fill="#3AB3AF" opacity="1.000000" stroke="none" 
	d="
M24.981348,66.224411 
	C25.239920,66.328468 25.533545,66.678223 26.032011,67.302551 
	C25.830036,67.208122 25.423220,66.839119 24.981348,66.224411 
z"/>
<path fill="#3BBAB5" opacity="1.000000" stroke="none" 
	d="
M74.405823,67.286133 
	C74.051338,67.007812 73.971825,66.683113 73.869049,65.608192 
	C74.253548,64.241798 74.661293,63.625622 75.395676,63.239891 
	C76.159012,63.776936 76.595703,64.083534 77.032402,64.390137 
	C76.482002,65.067528 75.931595,65.744919 75.293884,66.738068 
	C75.031319,67.115799 74.856056,67.177780 74.405823,67.286133 
z"/>
<path fill="#343737" opacity="1.000000" stroke="none" 
	d="
M54.956131,30.340027 
	C52.817848,30.638878 50.325542,30.740749 47.411743,30.798622 
	C49.527534,30.550766 52.064823,30.346909 54.956131,30.340027 
z"/>
<path fill="#333C3B" opacity="1.000000" stroke="none" 
	d="
M56.064285,36.217316 
	C56.448696,35.912914 56.833103,35.608513 57.423866,34.597687 
	C57.630219,33.891258 57.551292,33.930813 57.301697,34.376999 
	C57.550308,35.194901 58.048523,35.566612 58.800491,36.128578 
	C67.114769,40.003910 71.693283,46.147259 71.942741,55.326412 
	C67.797325,55.658024 64.000351,55.975620 60.243298,55.715820 
	C59.084648,55.635704 58.034889,53.980839 57.015461,52.646862 
	C56.737232,47.010662 56.378811,41.774612 56.036762,36.495640 
	C56.053139,36.452713 56.064285,36.217316 56.064285,36.217316 
z"/>
<path fill="#3BAEA9" opacity="1.000000" stroke="none" 
	d="
M72.306557,55.090031 
	C71.693283,46.147259 67.114769,40.003910 58.918411,35.626080 
	C58.857544,34.597790 58.932507,34.262249 59.007473,33.926712 
	C67.919144,37.302883 73.402473,43.216457 74.228745,53.169979 
	C74.522697,56.711018 76.153526,60.141079 77.103241,64.005966 
	C76.595703,64.083534 76.159012,63.776936 75.321487,62.898689 
	C74.241653,61.038677 73.562637,59.750320 72.857704,58.119244 
	C72.656715,56.881027 72.481636,55.985527 72.306557,55.090031 
z"/>
<path fill="#3AB3AF" opacity="1.000000" stroke="none" 
	d="
M58.621311,33.870079 
	C58.932507,34.262249 58.857544,34.597790 58.664658,35.435825 
	C58.048523,35.566612 57.550308,35.194901 57.257572,34.375702 
	C57.720413,33.889957 57.977783,33.851700 58.621311,33.870079 
z"/>
<path fill="#313A3A" opacity="1.000000" stroke="none" 
	d="
M72.883614,58.461964 
	C73.562637,59.750320 74.241653,61.038677 74.994858,62.668243 
	C74.661293,63.625622 74.253548,64.241798 73.751282,65.120773 
	C60.062916,65.397423 46.468853,65.452332 32.875446,65.381821 
	C30.782391,65.370964 28.692324,64.783310 26.308075,64.230453 
	C25.421009,59.679062 27.207617,58.062943 31.620691,58.215469 
	C39.098045,58.473900 46.592518,58.237011 55.003769,58.197155 
	C61.579700,58.277969 67.231659,58.369965 72.883614,58.461964 
z"/>
<path fill="#303736" opacity="1.000000" stroke="none" 
	d="
M38.763435,55.813843 
	C35.344845,55.815277 32.384014,55.815277 29.507715,55.815277 
	C28.353031,47.447899 34.338078,39.234535 43.804714,36.665588 
	C43.804714,42.576828 43.967110,48.270370 43.602043,53.929890 
	C43.555683,54.648602 40.749039,55.189262 38.763435,55.813843 
z"/>
<path fill="#323D3D" opacity="1.000000" stroke="none" 
	d="
M55.651386,35.903423 
	C56.064285,36.217316 56.053139,36.452713 55.660095,36.762207 
	C55.202728,42.384350 55.138405,47.697002 54.999691,53.324547 
	C54.616173,54.423580 54.307041,55.207722 53.997910,55.991863 
	C51.718552,55.859882 49.439194,55.727901 46.764832,55.573051 
	C46.764832,48.163651 46.764832,41.007397 46.764832,33.433022 
	C49.869133,33.585026 53.269917,31.170641 55.651386,35.903423 
z"/>
<path fill="#3BBAB5" opacity="1.000000" stroke="none" 
	d="
M54.122620,56.247353 
	C54.307041,55.207722 54.616173,54.423580 55.464989,53.333832 
	C56.314877,53.034492 56.625072,53.040756 56.935268,53.047016 
	C58.034889,53.980839 59.084648,55.635704 60.243298,55.715820 
	C64.000351,55.975620 67.797325,55.658024 71.942741,55.326412 
	C72.481636,55.985527 72.656715,56.881027 72.857704,58.119244 
	C67.231659,58.369965 61.579700,58.277969 55.465584,58.108940 
	C54.751389,57.522221 54.499359,57.012527 54.122620,56.247353 
z"/>
<path fill="#3AB3AF" opacity="1.000000" stroke="none" 
	d="
M57.015461,52.646862 
	C56.625072,53.040756 56.314877,53.034492 55.539375,53.018944 
	C55.138405,47.697002 55.202728,42.384350 55.643719,36.805130 
	C56.378811,41.774612 56.737232,47.010662 57.015461,52.646862 
z"/>
</svg>